<svg width="242" height="210" viewBox="0 0 242 210" fill="none" xmlns="http://www.w3.org/2000/svg">
<path d="M1 105C1 109.56 2.2 114.12 4.52 118.04L46.5999 190.92C50.9199 198.36 57.4799 204.44 65.6399 207.16C81.7199 212.52 98.3599 205.64 106.28 191.88L116.44 174.28L76.3599 105L118.68 31.6405L128.84 14.0405C131.88 8.76049 135.96 4.4405 140.76 1.0005H136.36H75.4799C64.0399 1.0005 53.4799 7.0805 47.7999 17.0005L4.52 91.9604C2.2 95.8804 1 100.44 1 105Z" fill="#6363F1"/>
<path d="M241 105C241 100.44 239.8 95.8796 237.48 91.9596L194.84 18.1197C186.92 4.43973 170.28 -2.44026 154.2 2.83973C146.04 5.55973 139.48 11.6397 135.16 19.0797L125.56 35.6397L165.64 105L123.32 178.359L113.16 195.959C110.12 201.159 106.04 205.559 101.24 208.999H105.64H166.52C177.96 208.999 188.52 202.919 194.2 192.999L237.48 118.04C239.8 114.12 241 109.56 241 105Z" fill="#6363F1"/>
</svg>
